# xmcd
#
# Track frame offsets: 
#        150
#        29328
#        48948
#        67035
#        85260
#        100602
#        115689
#        132714
#        151161
#        173838
#        191646
#        209565
#        227265
#        240411
#        255780
#        270699
#        295053
#        315935
#        330169
#        343566
#
# Disc length: 4786 seconds
#
# Revision: 1
# Processed by: cddbd v1.5.2PL0 Copyright (c) Steve Scherf et al.
# Submitted via: ExactAudioCopy v0.99pb5
#
DISCID=0512b014
DTITLE=Paula Seling - Muzica de Colectie vol.103
DYEAR=2009
DGENRE=Blues
TTITLE0=Ploaie in luna lui Marte
TTITLE1=Promit
TTITLE2=Timpul
TTITLE3=Serile verii
TTITLE4=Nu vreau sa te pierd
TTITLE5=Nothing but the bluess
TTITLE6=Culeg vise
TTITLE7=Ajunul din copilarie
TTITLE8=Chip de inger
TTITLE9=Langa mine
TTITLE10=Clopote albe, clopote negre
TTITLE11=Aripi
TTITLE12=Cafeaua de dimineata
TTITLE13=Ce bine ca esti
TTITLE14=Eu ma duc la cununie
TTITLE15=Truru
TTITLE16=Rad cand imi vine sa plang
TTITLE17=Trebuie sa dansezi
TTITLE18=Noapte calda
TTITLE19=Ma voi intoarce
EXTD=YEAR: 2009
EXTT0=
EXTT1=
EXTT2=
EXTT3=
EXTT4=
EXTT5=
EXTT6=
EXTT7=
EXTT8=
EXTT9=
EXTT10=
EXTT11=
EXTT12=
EXTT13=
EXTT14=
EXTT15=
EXTT16=
EXTT17=
EXTT18=
EXTT19=
PLAYORDER=
